<!DOCTYPE svg PUBLIC "-//W3C//DTD SVG 1.1//EN" "http://www.w3.org/Graphics/SVG/1.1/DTD/svg11.dtd">
<!-- Uploaded to: SVG Repo, www.svgrepo.com, Transformed by: SVG Repo Mixer Tools -->
<svg height="800px" width="800px" version="1.1" id="Layer_1" xmlns="http://www.w3.org/2000/svg" xmlns:xlink="http://www.w3.org/1999/xlink" viewBox="0 0 512 512" xml:space="preserve" fill="#000000">
<g id="SVGRepo_bgCarrier" stroke-width="0"/>
<g id="SVGRepo_tracerCarrier" stroke-linecap="round" stroke-linejoin="round"/>
<g id="SVGRepo_iconCarrier"> <path style="fill:#8AACAD;" d="M503.916,155.072v66.677c0,45.044-36.52,81.564-81.562,81.564H89.648 c-45.044,0-81.564-36.52-81.564-81.564v-92.887c0-45.044,36.52-81.562,81.564-81.562h332.705c45.042,0,81.562,36.518,81.562,81.562"/> <path style="fill:#ff475f;" d="M455.619,255.61c0,7.164-5.809,12.972-12.972,12.972H69.356c-7.166,0-12.972-5.809-12.972-12.972 V92.936c0-7.164,5.807-12.972,12.972-12.972h373.29c7.164,0,12.972,5.809,12.972,12.972V255.61z"/> <path style="fill:#A8E2EF;" d="M442.646,268.582H69.356c-7.166,0-12.972-5.809-12.972-12.972v-22.524H455.62v22.524 C455.619,262.773,449.811,268.582,442.646,268.582z"/> <path style="fill:#547475;" d="M125.781,464.7h296.573c45.042,0,81.562-36.518,81.562-81.562v-92.887 c0-12.236-2.712-23.833-7.541-34.25c-12.948,27.93-41.214,47.314-74.021,47.314H89.648c-32.809,0-61.076-19.383-74.023-47.314 c-4.828,10.417-7.541,22.015-7.541,34.25v92.887c0,45.044,36.52,81.562,81.564,81.562h11.341"/> <g style="opacity:0.2;"> <path style="fill:#231F20;" d="M33.236,383.138v-92.887c0-3.088,0.175-6.136,0.51-9.135c-7.529-7.099-13.714-15.61-18.12-25.116 c-4.828,10.417-7.541,22.015-7.541,34.25v92.887c0,45.044,36.52,81.562,81.564,81.562h11.341h13.81 C69.756,464.7,33.236,428.182,33.236,383.138z"/> <path style="fill:#231F20;" d="M503.406,281.117c-0.996-8.881-3.421-17.328-7.032-25.116 c-12.948,27.93-41.214,47.314-74.021,47.314h25.152C469.147,303.315,488.81,294.876,503.406,281.117z"/> </g> <circle style="fill:#ff475f;" cx="404.879" cy="345.078" r="16.609"/> <circle style="fill:#EFBA00;" cx="404.879" cy="416.801" r="16.61"/> <circle style="fill:#73C470;" cx="369.017" cy="380.94" r="16.609"/> <g> <circle style="fill:#F74848;" cx="440.74" cy="380.94" r="16.609"/> <polygon style="fill:#F74848;" points="135.13,359.828 113.486,359.828 113.486,338.184 89.286,338.184 89.286,359.828 67.642,359.828 67.642,384.028 89.286,384.028 89.286,405.673 113.486,405.673 113.486,384.028 135.13,384.028 "/> </g> <g> <circle style="fill:#8AACAD;" cx="208.573" cy="408.706" r="26.677"/> <circle style="fill:#8AACAD;" cx="303.427" cy="408.706" r="26.677"/> </g> <g style="opacity:0.1;"> <path style="fill:#231F20;" d="M207.32,408.709c0-10.131,5.648-18.943,13.968-23.459c-3.779-2.051-8.109-3.216-12.709-3.216 c-14.735,0-26.678,11.943-26.678,26.676c0,14.735,11.943,26.678,26.678,26.678c4.6,0,8.93-1.165,12.709-3.216 C212.968,427.654,207.32,418.841,207.32,408.709z"/> </g> <g style="opacity:0.1;"> <path style="fill:#231F20;" d="M302.167,408.709c0-10.131,5.648-18.943,13.967-23.459c-3.778-2.051-8.107-3.216-12.709-3.216 c-14.733,0-26.678,11.943-26.678,26.676c0,14.735,11.945,26.678,26.678,26.678c4.603,0,8.931-1.165,12.709-3.216 C307.815,427.654,302.167,418.841,302.167,408.709z"/> </g> <g style="opacity:0.2;"> <path style="fill:#231F20;" d="M32.876,221.751v-92.887c0-45.044,36.52-81.562,81.564-81.562H89.648 c-45.044,0-81.564,36.518-81.564,81.562v92.887c0,45.044,36.52,81.564,81.564,81.564h24.792 C69.396,303.315,32.876,266.795,32.876,221.751z"/> </g> <g> <path style="fill:#231F20;" d="M503.916,146.988c-4.466,0-8.084,3.618-8.084,8.084v66.677c0,11.279-2.561,21.969-7.122,31.528 c-0.107,0.224-0.216,0.446-0.324,0.668c-0.421,0.86-0.856,1.713-1.31,2.554c-0.063,0.116-0.124,0.235-0.186,0.351 c-1.088,1.992-2.266,3.928-3.528,5.803c-0.074,0.111-0.15,0.22-0.224,0.331c-0.59,0.867-1.198,1.721-1.823,2.561 c-0.049,0.066-0.096,0.133-0.146,0.197c-0.679,0.907-1.379,1.796-2.099,2.669c-0.065,0.078-0.132,0.153-0.196,0.231 c-0.596,0.717-1.209,1.42-1.831,2.114c-0.237,0.264-0.476,0.526-0.718,0.787c-0.458,0.496-0.926,0.983-1.398,1.466 c-0.3,0.307-0.595,0.619-0.9,0.919c-0.479,0.473-0.97,0.932-1.461,1.393c-0.687,0.641-1.384,1.272-2.093,1.886 c-0.148,0.128-0.294,0.257-0.443,0.384c-9.748,8.305-21.585,14.022-34.329,16.398c-0.176,0.032-0.352,0.064-0.528,0.095 c-0.758,0.136-1.519,0.264-2.283,0.376c-0.875,0.126-1.754,0.241-2.639,0.336c-0.443,0.049-0.888,0.082-1.332,0.122 c-0.71,0.064-1.423,0.121-2.139,0.163c-0.374,0.023-0.749,0.044-1.124,0.061c-1.096,0.049-2.195,0.084-3.303,0.084H89.648 c-1.108,0-2.208-0.036-3.303-0.084c-0.375-0.017-0.75-0.039-1.124-0.061c-0.716-0.043-1.428-0.1-2.139-0.163 c-0.444-0.04-0.889-0.073-1.332-0.122c-0.89-0.096-1.775-0.211-2.656-0.338c-0.758-0.111-1.512-0.239-2.265-0.373 c-0.177-0.031-0.355-0.063-0.531-0.095c-12.74-2.375-24.572-8.09-34.319-16.39c-0.157-0.135-0.314-0.272-0.471-0.407 c-0.615-0.534-1.224-1.076-1.823-1.63c-0.581-0.539-1.158-1.082-1.72-1.641c-0.298-0.293-0.585-0.597-0.877-0.897 c-0.48-0.492-0.956-0.986-1.423-1.492c-0.236-0.254-0.47-0.511-0.703-0.77c-0.631-0.703-1.251-1.414-1.855-2.142 c-0.057-0.069-0.117-0.137-0.175-0.206c-0.723-0.876-1.426-1.771-2.108-2.681c-0.043-0.058-0.085-0.117-0.128-0.176 c-0.633-0.849-1.246-1.713-1.843-2.589c-0.07-0.102-0.14-0.205-0.209-0.307c-1.265-1.881-2.447-3.821-3.538-5.82 c-0.06-0.11-0.117-0.222-0.177-0.332c-0.458-0.848-0.897-1.71-1.321-2.577c-0.106-0.217-0.212-0.432-0.316-0.651 c-4.563-9.562-7.125-20.255-7.125-31.536v-92.887c0-40.516,32.963-73.478,73.48-73.478h332.705 c40.516,0,73.478,32.962,73.478,73.478c0,4.466,3.618,8.084,8.084,8.084s8.084-3.618,8.084-8.084 c0-49.431-40.215-89.646-89.646-89.646H89.648C40.216,39.218,0,79.432,0,128.864v92.887c0,12.123,2.431,23.685,6.811,34.241 C2.295,266.874,0,278.379,0,290.251v92.887c0,49.431,40.216,89.646,89.648,89.646h11.341c4.466,0,8.084-3.618,8.084-8.084 c0-4.466-3.618-8.084-8.084-8.084H89.648c-40.517,0-73.48-32.962-73.48-73.478v-92.887c0-5.108,0.516-10.133,1.542-15.045 c0.881,1.181,1.795,2.333,2.73,3.464c0.031,0.038,0.063,0.077,0.094,0.115c0.847,1.023,1.717,2.025,2.606,3.008 c0.153,0.169,0.308,0.335,0.462,0.503c0.781,0.849,1.576,1.687,2.388,2.504c0.274,0.276,0.553,0.546,0.83,0.819 c0.606,0.594,1.219,1.179,1.841,1.756c0.435,0.405,0.873,0.808,1.317,1.205c0.303,0.269,0.613,0.531,0.919,0.797 c1,0.87,2.019,1.719,3.058,2.545c0.036,0.028,0.072,0.057,0.109,0.085c11.262,8.928,24.704,15.206,39.393,17.897 c0.283,0.053,0.568,0.102,0.852,0.153c1.005,0.174,2.012,0.334,3.028,0.474c0.767,0.108,1.536,0.207,2.308,0.294 c0.5,0.056,1.001,0.111,1.504,0.158c1.18,0.113,2.365,0.205,3.554,0.272c0.291,0.016,0.583,0.026,0.875,0.04 c1.353,0.063,2.709,0.103,4.07,0.103h332.705c1.361,0,2.717-0.041,4.07-0.103c0.292-0.013,0.584-0.024,0.875-0.04 c1.189-0.067,2.374-0.157,3.554-0.272c0.503-0.047,1.004-0.102,1.505-0.158c0.77-0.087,1.536-0.186,2.3-0.293 c1.02-0.14,2.033-0.301,3.042-0.476c0.28-0.05,0.559-0.098,0.839-0.15c14.708-2.694,28.165-8.982,39.436-17.928 c0.016-0.013,0.032-0.025,0.047-0.038c1.133-0.9,2.243-1.827,3.331-2.78c0.219-0.191,0.441-0.376,0.656-0.569 c0.454-0.405,0.901-0.818,1.346-1.232c0.603-0.558,1.198-1.126,1.785-1.702c0.301-0.295,0.603-0.589,0.899-0.888 c0.798-0.803,1.578-1.625,2.346-2.461c0.161-0.175,0.322-0.348,0.482-0.525c0.886-0.978,1.751-1.976,2.595-2.994 c0.036-0.043,0.07-0.086,0.106-0.129c0.932-1.13,1.844-2.279,2.724-3.457c1.025,4.911,1.541,9.937,1.541,15.046v92.887 c0,40.516-32.962,73.478-73.478,73.478H125.781c-4.466,0-8.084,3.618-8.084,8.084c0,4.466,3.618,8.084,8.084,8.084h296.573 c49.431,0,89.646-40.215,89.646-89.646v-92.887c0-11.876-2.295-23.382-6.81-34.261c4.379-10.557,6.81-22.118,6.81-34.24v-66.677 C512,150.608,508.382,146.988,503.916,146.988z"/> <path style="fill:#231F20;" d="M417.227,323.697c-3.753-2.167-8.017-3.311-12.332-3.311c-8.802,0-17.002,4.733-21.401,12.351 c-3.299,5.713-4.175,12.368-2.467,18.739c1.707,6.371,5.795,11.695,11.507,14.992c3.753,2.167,8.017,3.311,12.332,3.311 c8.801,0,17.003-4.732,21.402-12.348c3.298-5.713,4.175-12.368,2.467-18.739C427.026,332.32,422.94,326.994,417.227,323.697z M412.265,349.346c-1.519,2.631-4.354,4.265-7.399,4.265c-1.502,0-2.932-0.385-4.249-1.147c-1.973-1.138-3.384-2.976-3.972-5.175 c-0.589-2.199-0.287-4.497,0.853-6.47c1.519-2.631,4.355-4.266,7.399-4.266c1.482,0,2.95,0.396,4.248,1.146 c1.973,1.139,3.385,2.978,3.972,5.178C413.706,345.076,413.403,347.374,412.265,349.346z"/> <path style="fill:#231F20;" d="M417.226,395.412c-3.752-2.165-8.016-3.309-12.33-3.309c-8.803,0-17.004,4.732-21.403,12.349 c-3.298,5.713-4.175,12.368-2.467,18.739c1.707,6.371,5.794,11.697,11.507,14.995c3.752,2.167,8.016,3.311,12.331,3.311 c0.001,0,0.001,0,0.002,0c8.801,0,17.002-4.733,21.401-12.349c3.298-5.713,4.175-12.368,2.467-18.739 C427.026,404.037,422.94,398.71,417.226,395.412z M412.265,421.062c-1.52,2.632-4.354,4.266-7.398,4.266h-0.001 c-1.482,0-2.95-0.396-4.248-1.146c-1.973-1.139-3.385-2.978-3.972-5.178c-0.59-2.199-0.288-4.497,0.852-6.468 c1.519-2.631,4.355-4.266,7.401-4.266c1.481,0,2.949,0.396,4.247,1.145c1.973,1.139,3.384,2.978,3.972,5.178 C413.706,416.793,413.403,419.09,412.265,421.062z"/> <path style="fill:#231F20;" d="M347.637,368.593c-6.808,11.791-2.755,26.924,9.037,33.734c3.752,2.167,8.016,3.311,12.331,3.311 c0.001,0,0.001,0,0.002,0c8.801,0,17.002-4.733,21.401-12.351c3.298-5.713,4.175-12.368,2.467-18.739 c-1.707-6.371-5.794-11.697-11.505-14.995c-3.752-2.167-8.017-3.311-12.332-3.311C360.233,356.242,352.033,360.975,347.637,368.593 z M377.257,378.733c0.59,2.199,0.288,4.497-0.852,6.47c-1.52,2.631-4.354,4.266-7.398,4.266h-0.001 c-1.482,0-2.95-0.396-4.248-1.146c-4.071-2.351-5.47-7.575-3.118-11.649c1.518-2.63,4.353-4.265,7.397-4.265 c1.481,0,2.949,0.396,4.247,1.146C375.257,374.694,376.668,376.533,377.257,378.733z"/> <path style="fill:#231F20;" d="M440.725,405.638c8.802,0,17.002-4.734,21.398-12.351c6.808-11.792,2.755-26.924-9.037-33.734 c-3.753-2.167-8.017-3.311-12.332-3.311c-8.802,0-17.002,4.733-21.401,12.351c-3.298,5.713-4.175,12.368-2.467,18.739 c1.707,6.371,5.794,11.697,11.507,14.995c3.751,2.167,8.015,3.311,12.331,3.311C440.724,405.638,440.724,405.638,440.725,405.638z M432.503,383.146c-0.59-2.199-0.288-4.497,0.852-6.47c1.519-2.631,4.355-4.266,7.399-4.266c1.482,0,2.95,0.396,4.247,1.146 c4.071,2.351,5.47,7.575,3.118,11.649c-1.518,2.632-4.351,4.265-7.394,4.265h-0.001c-1.482,0-2.95-0.396-4.248-1.146 C434.503,387.185,433.092,385.346,432.503,383.146z"/> <path style="fill:#231F20;" d="M89.286,413.757h24.2c4.466,0,8.084-3.618,8.084-8.084v-13.56h13.56 c4.466,0,8.084-3.618,8.084-8.084v-24.2c0-4.466-3.618-8.084-8.084-8.084h-13.56v-13.56c0-4.466-3.618-8.084-8.084-8.084h-24.2 c-4.466,0-8.084,3.618-8.084,8.084v13.56h-13.56c-4.466,0-8.084,3.618-8.084,8.084v24.2c0,4.466,3.618,8.084,8.084,8.084h13.56 v13.56C81.202,410.138,84.821,413.757,89.286,413.757z M75.726,375.944v-8.031h13.56c4.466,0,8.084-3.62,8.084-8.084v-13.56h8.031 v13.56c0,4.465,3.618,8.084,8.084,8.084h13.56v8.031h-13.56c-4.466,0-8.084,3.618-8.084,8.084v13.56h-8.031v-13.56 c0-4.466-3.618-8.084-8.084-8.084H75.726z"/> <path style="fill:#231F20;" d="M208.579,373.949c-19.167,0-34.762,15.594-34.762,34.76c0,19.167,15.595,34.762,34.762,34.762 c19.166,0,34.76-15.595,34.76-34.762C243.339,389.542,227.745,373.949,208.579,373.949z M208.579,427.302 c-10.253,0-18.594-8.341-18.594-18.594c0-10.252,8.341-18.591,18.594-18.591c10.252,0,18.592,8.34,18.592,18.591 C227.171,418.961,218.831,427.302,208.579,427.302z"/> <path style="fill:#231F20;" d="M303.425,443.471c19.166,0,34.76-15.595,34.76-34.762c0-19.166-15.594-34.76-34.76-34.76 c-19.167,0-34.762,15.594-34.762,34.76C268.663,427.876,284.258,443.471,303.425,443.471z M303.425,390.117 c10.252,0,18.592,8.34,18.592,18.591c0,10.253-8.34,18.594-18.592,18.594c-10.253,0-18.594-8.341-18.594-18.594 C284.832,398.457,293.172,390.117,303.425,390.117z"/> <path style="fill:#231F20;" d="M266.373,339.155h-20.745c-4.466,0-8.084,3.618-8.084,8.084c0,4.466,3.618,8.084,8.084,8.084h20.745 c4.466,0,8.084-3.618,8.084-8.084S270.838,339.155,266.373,339.155z"/> <path style="fill:#231F20;" d="M69.356,71.879c-11.61,0-21.057,9.447-21.057,21.057v140.15v22.524 c0,11.61,9.447,21.057,21.057,21.057h373.29c11.611,0,21.057-9.447,21.057-21.057v-22.524V92.936 c0-11.61-9.447-21.057-21.057-21.057C442.646,71.879,69.356,71.879,69.356,71.879z M447.534,255.61 c0,2.696-2.192,4.888-4.888,4.888H69.356c-2.696,0-4.888-2.192-4.888-4.888V241.17h383.068v14.439H447.534z M447.534,92.936 v132.066H64.468V92.936c0-2.696,2.192-4.888,4.888-4.888h373.29C445.342,88.048,447.534,90.24,447.534,92.936z"/> </g> <g style="opacity:0.2;"> <path style="fill:#231F20;" d="M81.025,255.61V92.936c0-7.164,5.807-12.972,12.972-12.972H69.356 c-7.166,0-12.972,5.809-12.972,12.972V255.61c0,7.164,5.807,12.972,12.972,12.972h24.642 C86.832,268.582,81.025,262.773,81.025,255.61z"/> </g> </g>
</svg>